<?xml version="1.0" encoding="utf-8"?>
<!-- Generator: Adobe Illustrator 19.2.0, SVG Export Plug-In . SVG Version: 6.00 Build 0)  -->
<svg version="1.1" id="Capa_1" xmlns="http://www.w3.org/2000/svg" xmlns:xlink="http://www.w3.org/1999/xlink" x="0px" y="0px"
	 viewBox="0 0 859.7 1058.9" style="enable-background:new 0 0 859.7 1058.9;" xml:space="preserve">
<style type="text/css">
	.st0{fill:#42B549;}
	.st1{fill:#FFFFFF;}
</style>
<g>
	<g>
		<g>
			<path class="st0" d="M424.3,1005.5c-19.5,0-38.9-6.3-55.1-18.9l-123.7-96.2C107.8,783.3,28.8,621.8,28.8,447.3V194.1
				c0-22.1,8.8-42.7,24.8-58.1c16-15.2,38-23.6,60.3-22.4c107.7,5.1,194.9-15,266.5-61.7l0,0c26.6-17.4,61-17.4,87.5,0
				c71.6,46.7,158.8,66.8,266.5,61.7c22.2-1.1,44.3,7.1,60.3,22.4c16,15.2,24.8,35.9,24.8,58.1v253.3c0,174.4-79,335.9-216.7,443
				l-123.7,96.2C463.2,999.2,443.7,1005.5,424.3,1005.5z"/>
		</g>
	</g>
</g>
<path class="st1" d="M338.6,668.9L165.2,495.4c-10.4-10.4-10.4-27.3,0-37.7l37.7-37.7c10.4-10.4,27.3-10.4,37.7,0l116.8,116.8
	l250.2-250.2c10.4-10.4,27.3-10.4,37.7,0l37.7,37.7c10.4,10.4,10.4,27.3,0,37.7L376.4,668.9C365.9,679.3,349.1,679.3,338.6,668.9z"
	/>
</svg>
